<?xml version="1.0" encoding="UTF-8" standalone="no"?>
<!DOCTYPE svg PUBLIC "-//W3C//DTD SVG 1.1//EN"
 "http://www.w3.org/Graphics/SVG/1.1/DTD/svg11.dtd">
<!-- Generated by graphviz version 2.40.1 (20161225.0304)
 -->
<!-- Title: dependencies Pages: 1 -->
<svg width="1365pt" height="284pt"
 viewBox="0.00 0.00 1365.00 284.00" xmlns="http://www.w3.org/2000/svg" xmlns:xlink="http://www.w3.org/1999/xlink">
<g id="graph0" class="graph" transform="scale(1 1) rotate(0) translate(4 280)">
<title>dependencies</title>
<polygon fill="#ffffff" stroke="transparent" points="-4,4 -4,-280 1361,-280 1361,4 -4,4"/>
<text text-anchor="start" x="657.5091" y="-42.4" font-family="sans-serif" font-weight="bold" font-size="14.00" fill="#000000">Legend</text>
<polygon fill="#ffffb3" stroke="transparent" points="444.5,-10 444.5,-30 464.5,-30 464.5,-10 444.5,-10"/>
<text text-anchor="start" x="468.129" y="-15.4" font-family="sans-serif" font-size="14.00" fill="#000000"> &#160;Declarations</text>
<polygon fill="#8dd3c7" stroke="transparent" points="557.5,-10 557.5,-30 577.5,-30 577.5,-10 557.5,-10"/>
<text text-anchor="start" x="581.2251" y="-15.4" font-family="sans-serif" font-size="14.00" fill="#000000"> &#160;Module</text>
<polygon fill="#80b1d3" stroke="transparent" points="643.5,-10 643.5,-30 663.5,-30 663.5,-10 643.5,-10"/>
<text text-anchor="start" x="667.2812" y="-15.4" font-family="sans-serif" font-size="14.00" fill="#000000"> &#160;Bootstrap</text>
<polygon fill="#fdb462" stroke="transparent" points="740.5,-10 740.5,-30 760.5,-30 760.5,-10 740.5,-10"/>
<text text-anchor="start" x="764.1732" y="-15.4" font-family="sans-serif" font-size="14.00" fill="#000000"> &#160;Providers</text>
<polygon fill="#fb8072" stroke="transparent" points="836.5,-10 836.5,-30 856.5,-30 856.5,-10 836.5,-10"/>
<text text-anchor="start" x="860.2258" y="-15.4" font-family="sans-serif" font-size="14.00" fill="#000000"> &#160;Exports</text>
<g id="clust1" class="cluster">
<title>cluster_AppModule</title>
<polygon fill="none" stroke="#000000" stroke-dasharray="1,5" points="8,-70 8,-268 1349,-268 1349,-70 8,-70"/>
</g>
<g id="clust2" class="cluster">
<title>cluster_AppModule_declarations</title>
<polygon fill="none" stroke="#000000" points="168,-78 168,-130 1341,-130 1341,-78 168,-78"/>
</g>
<g id="clust11" class="cluster">
<title>cluster_AppModule_imports</title>
<polygon fill="none" stroke="#000000" points="16,-78 16,-130 160,-130 160,-78 16,-78"/>
</g>
<g id="clust13" class="cluster">
<title>cluster_AppModule_bootstrap</title>
<polygon fill="none" stroke="#000000" points="640,-208 640,-260 764,-260 764,-208 640,-208"/>
</g>
<!-- AppComponent -->
<g id="node1" class="node">
<title>AppComponent</title>
<polygon fill="#ffffb3" stroke="#000000" points="1332.9399,-122 1227.0601,-122 1227.0601,-86 1332.9399,-86 1332.9399,-122"/>
<text text-anchor="middle" x="1280" y="-99.8" font-family="Times,serif" font-size="14.00" fill="#000000">AppComponent</text>
</g>
<!-- AppModule -->
<g id="node9" class="node">
<title>AppModule</title>
<polygon fill="#8dd3c7" stroke="#000000" points="743.6571,-187 740.6571,-191 719.6571,-191 716.6571,-187 660.3429,-187 660.3429,-151 743.6571,-151 743.6571,-187"/>
<text text-anchor="middle" x="702" y="-164.8" font-family="Times,serif" font-size="14.00" fill="#000000">AppModule</text>
</g>
<!-- AppComponent&#45;&gt;AppModule -->
<g id="edge1" class="edge">
<title>AppComponent&#45;&gt;AppModule</title>
<path fill="none" stroke="#000000" d="M1280,-122.0109C1280,-144.4852 1280,-180 1280,-180 1280,-180 754.0339,-180 754.0339,-180"/>
<polygon fill="#000000" stroke="#000000" points="754.034,-176.5001 744.0339,-180 754.0339,-183.5001 754.034,-176.5001"/>
</g>
<!-- DateFormatPipe -->
<g id="node2" class="node">
<title>DateFormatPipe</title>
<polygon fill="#ffffb3" stroke="#000000" points="1208.7535,-122 1101.2465,-122 1101.2465,-86 1208.7535,-86 1208.7535,-122"/>
<text text-anchor="middle" x="1155" y="-99.8" font-family="Times,serif" font-size="14.00" fill="#000000">DateFormatPipe</text>
</g>
<!-- DateFormatPipe&#45;&gt;AppModule -->
<g id="edge2" class="edge">
<title>DateFormatPipe&#45;&gt;AppModule</title>
<path fill="none" stroke="#000000" d="M1155,-122.1289C1155,-142.5724 1155,-173 1155,-173 1155,-173 753.8052,-173 753.8052,-173"/>
<polygon fill="#000000" stroke="#000000" points="753.8052,-169.5001 743.8052,-173 753.8051,-176.5001 753.8052,-169.5001"/>
</g>
<!-- HashtagLimitPipe -->
<g id="node3" class="node">
<title>HashtagLimitPipe</title>
<polygon fill="#ffffb3" stroke="#000000" points="1082.8739,-122 965.1261,-122 965.1261,-86 1082.8739,-86 1082.8739,-122"/>
<text text-anchor="middle" x="1024" y="-99.8" font-family="Times,serif" font-size="14.00" fill="#000000">HashtagLimitPipe</text>
</g>
<!-- HashtagLimitPipe&#45;&gt;AppModule -->
<g id="edge3" class="edge">
<title>HashtagLimitPipe&#45;&gt;AppModule</title>
<path fill="none" stroke="#000000" d="M1024,-122.2667C1024,-140.5552 1024,-166 1024,-166 1024,-166 753.7658,-166 753.7658,-166"/>
<polygon fill="#000000" stroke="#000000" points="753.7658,-162.5001 743.7658,-166 753.7657,-169.5001 753.7658,-162.5001"/>
</g>
<!-- HashtagSearchComponent -->
<g id="node4" class="node">
<title>HashtagSearchComponent</title>
<polygon fill="#ffffb3" stroke="#000000" points="946.7907,-122 781.2093,-122 781.2093,-86 946.7907,-86 946.7907,-122"/>
<text text-anchor="middle" x="864" y="-99.8" font-family="Times,serif" font-size="14.00" fill="#000000">HashtagSearchComponent</text>
</g>
<!-- HashtagSearchComponent&#45;&gt;AppModule -->
<g id="edge4" class="edge">
<title>HashtagSearchComponent&#45;&gt;AppModule</title>
<path fill="none" stroke="#000000" d="M864,-122.0091C864,-138.0494 864,-159 864,-159 864,-159 753.719,-159 753.719,-159"/>
<polygon fill="#000000" stroke="#000000" points="753.7191,-155.5001 743.719,-159 753.719,-162.5001 753.7191,-155.5001"/>
</g>
<!-- NavbarComponent -->
<g id="node5" class="node">
<title>NavbarComponent</title>
<polygon fill="#ffffb3" stroke="#000000" points="763.0297,-122 640.9703,-122 640.9703,-86 763.0297,-86 763.0297,-122"/>
<text text-anchor="middle" x="702" y="-99.8" font-family="Times,serif" font-size="14.00" fill="#000000">NavbarComponent</text>
</g>
<!-- NavbarComponent&#45;&gt;AppModule -->
<g id="edge5" class="edge">
<title>NavbarComponent&#45;&gt;AppModule</title>
<path fill="none" stroke="#000000" d="M702,-122.1061C702,-122.1061 702,-140.991 702,-140.991"/>
<polygon fill="#000000" stroke="#000000" points="698.5001,-140.9909 702,-150.991 705.5001,-140.991 698.5001,-140.9909"/>
</g>
<!-- TableComponent -->
<g id="node6" class="node">
<title>TableComponent</title>
<polygon fill="#ffffb3" stroke="#000000" points="622.705,-122 509.295,-122 509.295,-86 622.705,-86 622.705,-122"/>
<text text-anchor="middle" x="566" y="-99.8" font-family="Times,serif" font-size="14.00" fill="#000000">TableComponent</text>
</g>
<!-- TableComponent&#45;&gt;AppModule -->
<g id="edge6" class="edge">
<title>TableComponent&#45;&gt;AppModule</title>
<path fill="none" stroke="#000000" d="M566,-122.0091C566,-138.0494 566,-159 566,-159 566,-159 650.0858,-159 650.0858,-159"/>
<polygon fill="#000000" stroke="#000000" points="650.0858,-162.5001 660.0858,-159 650.0858,-155.5001 650.0858,-162.5001"/>
</g>
<!-- TableSearchComponent -->
<g id="node7" class="node">
<title>TableSearchComponent</title>
<polygon fill="#ffffb3" stroke="#000000" points="491.7921,-122 340.2079,-122 340.2079,-86 491.7921,-86 491.7921,-122"/>
<text text-anchor="middle" x="416" y="-99.8" font-family="Times,serif" font-size="14.00" fill="#000000">TableSearchComponent</text>
</g>
<!-- TableSearchComponent&#45;&gt;AppModule -->
<g id="edge7" class="edge">
<title>TableSearchComponent&#45;&gt;AppModule</title>
<path fill="none" stroke="#000000" d="M416,-122.2667C416,-140.5552 416,-166 416,-166 416,-166 650.1069,-166 650.1069,-166"/>
<polygon fill="#000000" stroke="#000000" points="650.1069,-169.5001 660.1069,-166 650.1068,-162.5001 650.1069,-169.5001"/>
</g>
<!-- UserSearchComponent -->
<g id="node8" class="node">
<title>UserSearchComponent</title>
<polygon fill="#ffffb3" stroke="#000000" points="321.8459,-122 176.1541,-122 176.1541,-86 321.8459,-86 321.8459,-122"/>
<text text-anchor="middle" x="249" y="-99.8" font-family="Times,serif" font-size="14.00" fill="#000000">UserSearchComponent</text>
</g>
<!-- UserSearchComponent&#45;&gt;AppModule -->
<g id="edge8" class="edge">
<title>UserSearchComponent&#45;&gt;AppModule</title>
<path fill="none" stroke="#000000" d="M249,-122.1289C249,-142.5724 249,-173 249,-173 249,-173 650.1948,-173 650.1948,-173"/>
<polygon fill="#000000" stroke="#000000" points="650.1949,-176.5001 660.1948,-173 650.1948,-169.5001 650.1949,-176.5001"/>
</g>
<!-- AppComponent  -->
<g id="node11" class="node">
<title>AppComponent </title>
<polygon fill="#80b1d3" stroke="#000000" points="756.439,-252 647.561,-252 647.561,-216 756.439,-216 756.439,-252"/>
<text text-anchor="middle" x="702" y="-229.8" font-family="Times,serif" font-size="14.00" fill="#000000">AppComponent </text>
</g>
<!-- AppModule&#45;&gt;AppComponent  -->
<g id="edge10" class="edge">
<title>AppModule&#45;&gt;AppComponent </title>
<path fill="none" stroke="#000000" stroke-dasharray="1,5" d="M702,-187.1061C702,-187.1061 702,-205.991 702,-205.991"/>
<polygon fill="#000000" stroke="#000000" points="698.5001,-205.9909 702,-215.991 705.5001,-205.991 698.5001,-205.9909"/>
</g>
<!-- AppRoutingModule -->
<g id="node10" class="node">
<title>AppRoutingModule</title>
<polygon fill="#8dd3c7" stroke="#000000" points="152.2744,-122 149.2744,-126 128.2744,-126 125.2744,-122 23.7256,-122 23.7256,-86 152.2744,-86 152.2744,-122"/>
<text text-anchor="middle" x="88" y="-99.8" font-family="Times,serif" font-size="14.00" fill="#000000">AppRoutingModule</text>
</g>
<!-- AppRoutingModule&#45;&gt;AppModule -->
<g id="edge9" class="edge">
<title>AppRoutingModule&#45;&gt;AppModule</title>
<path fill="none" stroke="#000000" d="M88,-122.0109C88,-144.4852 88,-180 88,-180 88,-180 650.28,-180 650.28,-180"/>
<polygon fill="#000000" stroke="#000000" points="650.28,-183.5001 660.28,-180 650.28,-176.5001 650.28,-183.5001"/>
</g>
</g>
</svg>
